<svg width="11" height="23" viewBox="0 0 11 23" fill="none" xmlns="http://www.w3.org/2000/svg">
<path d="M1.56098 22.997C1.1969 22.9978 0.844055 22.8644 0.563708 22.62C0.405923 22.4824 0.275496 22.3134 0.179895 22.1227C0.0842939 21.932 0.0253982 21.7233 0.00658111 21.5086C-0.012236 21.2939 0.00939553 21.0774 0.0702362 20.8715C0.131077 20.6656 0.22993 20.4744 0.361137 20.3087L7.34205 11.5225L0.610457 2.71986C0.48102 2.55219 0.38436 2.35926 0.326032 2.15216C0.267704 1.94506 0.248859 1.72788 0.27058 1.51309C0.292301 1.29831 0.354158 1.09016 0.452598 0.900602C0.551038 0.711048 0.684119 0.543828 0.844192 0.408555C1.00542 0.259326 1.19422 0.146765 1.39876 0.0779357C1.6033 0.00910631 1.81915 -0.0145046 2.03278 0.0085837C2.2464 0.031672 2.45318 0.100961 2.64014 0.212104C2.82711 0.323246 2.99021 0.473841 3.11922 0.654439L10.6455 10.4898C10.8747 10.7831 11 11.151 11 11.5307C11 11.9104 10.8747 12.2783 10.6455 12.5716L2.85432 22.4069C2.698 22.6053 2.49943 22.7621 2.27472 22.8646C2.05 22.9672 1.80548 23.0125 1.56098 22.997Z" fill="white"/>
</svg>
