<svg width="23" height="23" viewBox="0 0 23 23" fill="none" xmlns="http://www.w3.org/2000/svg">
<path d="M22.73 21.73L2.77 1.77002L2 1.00002L1.27 0.27002L0 1.54002L4.39 5.93002L6.6 10.59L5.25 13.04C5.09 13.32 5 13.65 5 14C5 15.1 5.9 16 7 16H14.46L15.84 17.38C15.4966 17.6262 15.2402 17.9749 15.1075 18.3761C14.9749 18.7772 14.9729 19.2101 15.1018 19.6124C15.2307 20.0148 15.484 20.3659 15.825 20.6152C16.1661 20.8645 16.5775 20.9993 17 21C17.67 21 18.26 20.67 18.62 20.16L21.46 23L22.73 21.73ZM7.42 14C7.28 14 7.17 13.89 7.17 13.75L7.2 13.63L8.1 12H10.46L12.46 14H7.42ZM15.55 12C16.3 12 16.96 11.59 17.3 10.97L20.88 4.48002C20.9625 4.32741 21.004 4.156 21.0005 3.98255C20.9969 3.8091 20.9485 3.63953 20.8598 3.49041C20.7711 3.34129 20.6453 3.21772 20.4946 3.13176C20.3439 3.04581 20.1735 3.00042 20 3.00002H6.54L15.55 12ZM7 17C5.9 17 5.01 17.9 5.01 19C5.01 20.1 5.9 21 7 21C8.1 21 9 20.1 9 19C9 17.9 8.1 17 7 17Z" fill="black"/>
</svg>
